<svg id="图层_1" data-name="图层 1" xmlns="http://www.w3.org/2000/svg" viewBox="0 0 118.7 19"><defs><style>.cls-1{fill:#118d5c;}</style></defs><title>logo</title><path class="cls-1" d="M466.58,502.5c-7.69,0-13.92,3.11-13.92,6.93s6.23,6.94,13.92,6.94,13.92-3.1,13.92-6.94-6.24-6.93-13.92-6.93m-1.35,11.83c-5.13,0-9.29-2.24-9.29-5s4.16-5,9.29-5,9.28,2.23,9.28,5-4.15,5-9.28,5" transform="translate(-452.65 -502.5)"/><path class="cls-1" d="M557.43,502.5c-7.7,0-13.93,3.11-13.93,6.93s6.23,6.94,13.93,6.94,13.92-3.1,13.92-6.94-6.23-6.93-13.92-6.93m-1.35,11.83c-5.13,0-9.29-2.24-9.29-5s4.16-5,9.29-5,9.28,2.23,9.28,5-4.15,5-9.28,5" transform="translate(-452.65 -502.5)"/><path class="cls-1" d="M497.27,502.5a23.92,23.92,0,0,0-6.5.82v1.87a14.79,14.79,0,0,1,5.15-.87c5.13,0,9.25,2.23,9.25,5s-4.15,5-9.28,5c-3.62,0-6.84-1.12-8.27-2.74v-8.72h-5.16V521.5h5.16v-7.05a23.16,23.16,0,0,0,9.6,1.92c7.69,0,13.95-3.1,13.95-6.94s-6.21-6.93-13.9-6.93" transform="translate(-452.65 -502.5)"/><path class="cls-1" d="M527.77,502.5a26.64,26.64,0,0,0-6.64.82v1.87a16.9,16.9,0,0,1,5.29-.87c5.13,0,9.32,2.23,9.32,5s-4.11,5-9.24,5c-3.62,0-6.8-1.12-8.23-2.74v-8.72h-5.16V521.5h5.11v-7a23,23,0,0,0,9.62,1.89c7.69,0,13.89-3.12,13.89-7s-6.27-6.95-14-6.95" transform="translate(-452.65 -502.5)"/></svg>